# Blender v2.78 (sub 0) OBJ File: ''
# www.blender.org
o Cube
v 1.000000 -1.000000 -1.000000
v 1.000000 -1.000000 1.000000
v -1.000000 -1.000000 1.000000
v -1.000000 -1.000000 -1.000000
v 1.000000 1.000000 -0.999999
v 0.999999 1.000000 1.000001
v -1.000000 1.000000 1.000000
v -1.000000 1.000000 -1.000000
vt 0.0098 0.9902
vt 0.9902 0.0098
vt 0.9902 0.9902
vt 0.0007 0.9993
vt 0.9993 0.0007
vt 0.9993 0.9993
vt 0.9951 0.9951
vt 0.0049 0.0049
vt 0.9951 0.0049
vt 0.9958 0.9958
vt 0.0042 0.0042
vt 0.9958 0.0042
vt 0.0019 0.9981
vt 0.9981 0.0019
vt 0.9981 0.9981
vt 0.9985 0.9985
vt 0.0015 0.0015
vt 0.9985 0.0015
vt 0.0098 0.0098
vt 0.0007 0.0007
vt 0.0049 0.9951
vt 0.0042 0.9958
vt 0.0019 0.0019
vt 0.0015 0.9985
vn 0.0000 -1.0000 0.0000
vn 0.0000 1.0000 0.0000
vn 1.0000 -0.0000 0.0000
vn 0.0000 -0.0000 1.0000
vn -1.0000 -0.0000 -0.0000
vn 0.0000 0.0000 -1.0000
s off
f 2/1/1 4/2/1 1/3/1
f 8/4/2 6/5/2 5/6/2
f 5/7/3 2/8/3 1/9/3
f 6/10/4 3/11/4 2/12/4
f 3/13/5 8/14/5 4/15/5
f 1/16/6 8/17/6 5/18/6
f 2/1/1 3/19/1 4/2/1
f 8/4/2 7/20/2 6/5/2
f 5/7/3 6/21/3 2/8/3
f 6/10/4 7/22/4 3/11/4
f 3/13/5 7/23/5 8/14/5
f 1/16/6 4/24/6 8/17/6
